<svg width="8" height="12" viewBox="0 0 8 12" fill="none" xmlns="http://www.w3.org/2000/svg">
<path fill-rule="evenodd" clip-rule="evenodd" d="M7.24841 0.351588C7.47338 0.576621 7.59975 0.881791 7.59975 1.19999C7.59975 1.51818 7.47338 1.82335 7.24841 2.04839L3.29681 5.99999L7.24841 9.95159C7.467 10.1779 7.58795 10.481 7.58522 10.7957C7.58248 11.1103 7.45628 11.4113 7.23379 11.6338C7.0113 11.8563 6.71033 11.9825 6.39569 11.9852C6.08106 11.9879 5.77793 11.867 5.55161 11.6484L0.751612 6.84839C0.526647 6.62335 0.400269 6.31818 0.400269 5.99999C0.400269 5.68179 0.526647 5.37662 0.751612 5.15159L5.55161 0.351588C5.77664 0.126623 6.08181 0.000244141 6.40001 0.000244141C6.71821 0.000244141 7.02338 0.126623 7.24841 0.351588Z" fill="white"/>
</svg>
