<svg width="15" height="15" viewBox="0 0 15 15" fill="none" xmlns="http://www.w3.org/2000/svg">
<path d="M12.6136 0H2.38636C1.07045 0 0 1.07045 0 2.38636V4.09091C0 4.65477 0.458864 5.11364 1.02273 5.11364C1.58659 5.11364 2.04545 4.65477 2.04545 4.09091V2.38636C2.04545 2.19818 2.19818 2.04545 2.38636 2.04545H12.6136C12.8018 2.04545 12.9545 2.19818 12.9545 2.38636V12.6136C12.9545 12.8018 12.8018 12.9545 12.6136 12.9545H2.38636C2.19818 12.9545 2.04545 12.8018 2.04545 12.6136V10.9091C2.04545 10.3452 1.58659 9.88636 1.02273 9.88636C0.458864 9.88636 0 10.3452 0 10.9091V12.6136C0 13.9295 1.07045 15 2.38636 15H12.6136C13.9295 15 15 13.9295 15 12.6136V2.38636C15 1.07045 13.9295 0 12.6136 0Z" fill="white"/>
<path d="M0 7.5C0 8.06386 0.458864 8.52273 1.02273 8.52273H7.75841L7.45909 8.82205C7.06023 9.22091 7.06023 9.86932 7.45909 10.2682C7.65205 10.4611 7.90909 10.5675 8.1825 10.5675C8.45591 10.5675 8.71227 10.4611 8.90591 10.2682L10.9514 8.22273L10.9534 8.22C11.0475 8.12591 11.1218 8.01273 11.1736 7.88795C11.1757 7.88318 11.1764 7.87841 11.1777 7.87364C11.2241 7.75705 11.2507 7.63159 11.2507 7.49932C11.2507 7.36705 11.2234 7.24091 11.1777 7.125C11.1757 7.12023 11.175 7.11545 11.1736 7.11068C11.1218 6.98591 11.0475 6.87341 10.9534 6.77864L10.9514 6.77591L8.90591 4.73045C8.50705 4.33159 7.85864 4.33159 7.45977 4.73045C7.06091 5.12932 7.06091 5.77773 7.45977 6.17659L7.75909 6.47591H1.02273C0.458864 6.47591 0 6.93477 0 7.49864V7.5Z" fill="white"/>
</svg>
