<svg width="15" height="15" viewBox="0 0 15 15" fill="none" xmlns="http://www.w3.org/2000/svg">
<path fill-rule="evenodd" clip-rule="evenodd" d="M5.87071 2.39536C6.28392 2.26714 6.57893 1.9025 6.61822 1.47179C6.66465 0.990714 6.72536 0.324643 6.72536 0.324643C6.74178 0.140714 6.89607 0 7.08071 0H7.91929C8.10393 0 8.25822 0.140714 8.27464 0.324643L8.37893 1.47179C8.41857 1.90393 8.71428 2.26964 9.12857 2.39821H9.12893C9.41679 2.48714 9.69357 2.60286 9.95785 2.73929C10.3382 2.94071 10.8057 2.89179 11.1386 2.61429C11.5118 2.30679 12.0257 1.87857 12.0257 1.87857C12.1675 1.76036 12.3764 1.76964 12.5068 1.90036L13.0996 2.49321C13.2304 2.62357 13.2396 2.8325 13.1214 2.97429L12.3836 3.85964C12.1057 4.19357 12.0568 4.66214 12.2596 5.04607C12.3986 5.30893 12.5136 5.58571 12.6054 5.87321C12.7329 6.28393 13.0975 6.57893 13.5282 6.61821C14.0093 6.66464 14.6754 6.72536 14.6754 6.72536C14.8593 6.74179 15 6.89607 15 7.08071V7.91929C15 8.10393 14.8593 8.25821 14.6754 8.27464L13.5282 8.37893C13.0961 8.41857 12.7304 8.71428 12.6018 9.12857C12.5129 9.41643 12.3971 9.69357 12.2607 9.95786C12.0593 10.3382 12.1082 10.8057 12.3857 11.1386C12.6932 11.5118 13.1214 12.0257 13.1214 12.0257C13.2396 12.1675 13.2304 12.3764 13.0996 12.5068L12.5068 13.0996C12.3764 13.2304 12.1675 13.2396 12.0257 13.1214L11.1404 12.3836C10.8064 12.1057 10.3379 12.0568 9.95393 12.2596C9.69107 12.3986 9.41428 12.5136 9.12678 12.6054C8.71607 12.7329 8.42107 13.0975 8.38178 13.5282C8.33535 14.0093 8.27464 14.6754 8.27464 14.6754C8.25822 14.8593 8.10393 15 7.91929 15H7.08071C6.89607 15 6.74178 14.8593 6.72536 14.6754L6.62107 13.5282C6.58143 13.0961 6.28572 12.7304 5.87143 12.6018H5.87107C5.58321 12.5129 5.30643 12.3971 5.04215 12.2607C4.66179 12.0593 4.19429 12.1082 3.86143 12.3857C3.48822 12.6932 2.97429 13.1214 2.97429 13.1214C2.8325 13.2396 2.62357 13.2304 2.49321 13.0996L1.90036 12.5068C1.76965 12.3764 1.76036 12.1675 1.87857 12.0257L2.61642 11.1404C2.89428 10.8064 2.94322 10.3379 2.74036 9.95393C2.60143 9.69107 2.48642 9.41429 2.39464 9.12679C2.26714 8.71607 1.9025 8.42107 1.47179 8.38179C0.990715 8.33536 0.324642 8.27464 0.324642 8.27464C0.140713 8.25821 0 8.10393 0 7.91929V7.08071C0 6.89607 0.140713 6.74179 0.324642 6.72536L1.47179 6.62107C1.90393 6.58143 2.26964 6.28572 2.39821 5.87143C2.48714 5.58357 2.60286 5.30643 2.73929 5.04214C2.94072 4.66178 2.89179 4.19429 2.61429 3.86143C2.30679 3.48821 1.87857 2.97429 1.87857 2.97429C1.76036 2.8325 1.76965 2.62357 1.90036 2.49321L2.49321 1.90036C2.62357 1.76964 2.8325 1.76036 2.97429 1.87857L3.85965 2.61643C4.19357 2.89429 4.66214 2.94321 5.04607 2.74036C5.30893 2.60143 5.58572 2.48643 5.87322 2.39464L5.87071 2.39536ZM7.5 5C6.12036 5 5 6.12036 5 7.5C5 8.87964 6.12036 10 7.5 10C8.87964 10 10 8.87964 10 7.5C10 6.12036 8.87964 5 7.5 5Z" fill="white"/>
</svg>
