<?xml version="1.0" standalone="no"?>
<svg version="1.0" xmlns="http://www.w3.org/2000/svg" width="300.000000pt" height="300.000000pt"
    viewBox="0 0 300.000000 300.000000" preserveAspectRatio="xMidYMid meet">
    <g transform="translate(0.000000,300.000000) scale(0.050000,-0.050000)" fill="#ffffff"
        stroke="#000000">
        <path
            d="M3929 5300 c-259 -53 -713 -323 -1089 -648 -186 -161 -375 -259 -311
-160 58 88 21 73 -76 -31 -95 -102 -273 -221 -273 -184 0 12 19 72 42 134 23
61 37 116 31 122 -10 10 -193 -289 -193 -315 0 -7 -83 -17 -185 -22 -407 -19
-645 -274 -645 -691 l0 -205 -70 -2 -70 -1 67 -30 c107 -46 299 -56 402 -20
99 34 108 33 90 -13 -7 -17 -48 -37 -96 -45 -181 -30 -372 -306 -254 -368 52
-28 51 -29 128 39 l68 60 14 -89 c9 -59 4 -105 -13 -135 -37 -66 -30 -562 13
-891 l34 -264 -45 -66 c-68 -96 -330 -428 -443 -560 -63 -73 -95 -127 -87
-146 18 -48 49 -20 277 251 116 138 264 312 329 388 l119 138 -16 102 c-31
193 -77 651 -77 762 l0 111 59 -43 c47 -35 55 -52 40 -80 -51 -95 19 -258 111
-258 53 0 176 73 247 146 62 65 75 70 200 72 148 2 310 39 491 112 160 65 160
54 -2 -76 -220 -177 -401 -285 -576 -344 -39 -13 -39 -14 5 -44 44 -30 42 -33
-186 -251 -323 -309 -643 -744 -599 -815 30 -48 76 -8 193 165 146 217 488
566 807 825 121 98 324 269 450 381 l230 202 142 4 c370 9 787 196 1170 526
159 137 162 132 70 -89 -197 -477 -512 -1059 -629 -1162 -74 -65 -47 -75 59
-21 56 28 104 49 106 45 3 -3 16 -91 31 -196 68 -504 197 -806 384 -902 104
-53 121 -34 42 47 -125 129 -218 403 -305 898 l-41 233 208 417 c295 588 318
648 323 827 4 135 12 160 76 254 100 148 120 225 110 410 l-10 158 62 32
c1081 546 737 1026 -506 705 -125 -33 -231 -59 -235 -59 -4 0 25 64 65 143
185 369 75 586 -263 517z m200 -230 c-1 -158 -119 -397 -188 -382 -257 56
-590 62 -756 14 -97 -29 -83 -15 140 134 373 248 592 349 735 339 l70 -5 -1
-100z m1166 -431 c177 -62 60 -196 -360 -411 -206 -105 -222 -110 -242 -75
-36 65 -220 250 -312 313 l-90 62 144 36 c356 90 725 122 860 75z m-1615 -91
c59 -17 127 -45 153 -62 l45 -29 -92 -174 c-51 -95 -95 -176 -98 -180 -3 -4
-58 46 -122 112 -132 134 -320 237 -482 263 -101 16 -160 41 -102 43 15 1 82
14 148 29 167 37 421 37 550 -2z m-617 -189 c196 -66 339 -172 449 -331 l73
-105 -98 -160 c-92 -152 -101 -160 -189 -178 l-92 -18 -48 90 c-91 173 -283
330 -502 412 l-94 36 60 122 60 123 -101 -107 c-131 -138 -263 -141 -192 -5
70 136 435 201 674 121z m1128 -264 c40 -76 68 -143 61 -149 -16 -17 -399
-166 -406 -159 -3 4 -27 48 -53 99 l-47 93 53 79 c29 44 79 135 111 201 l58
122 75 -74 c42 -41 108 -136 148 -212z m239 49 c54 -46 111 -136 96 -152 -36
-35 -152 15 -144 62 9 55 -5 107 -25 94 -14 -9 -18 -5 -9 9 19 31 34 28 82
-13z m-2670 -164 c-121 -124 -218 -317 -260 -517 -53 -245 -139 -228 -140 28
0 272 138 490 353 556 148 46 152 41 47 -67z m518 59 c81 -22 178 -57 217 -76
l70 -36 -56 -44 c-34 -27 -69 -39 -88 -31 -113 50 -241 87 -301 86 -68 -1 -69
-1 -20 -23 255 -115 299 -144 265 -178 -18 -18 -42 -16 -99 9 -107 47 -250 78
-318 71 -52 -6 -46 -11 52 -44 184 -61 284 -128 260 -173 -20 -37 -22 -37
-114 4 -51 23 -153 45 -225 50 l-131 8 117 -42 c223 -80 279 -129 260 -226
-62 -310 62 -616 297 -736 44 -23 75 -46 69 -51 -30 -30 -318 -87 -442 -87
l-141 0 -2 -62 c-3 -70 -128 -219 -128 -151 0 19 10 54 22 76 33 62 6 129 -71
177 -79 48 -101 105 -134 350 l-22 160 94 138 c117 173 119 243 8 240 l-72 -2
19 72 c39 143 159 339 276 451 132 125 136 126 338 70z m547 -284 c437 -428
151 -1278 -325 -967 -274 180 -249 637 52 953 139 145 140 145 273 14z m1755
20 c-1 -99 -54 -222 -129 -300 -70 -73 -68 -74 -68 72 0 69 -6 148 -13 175
-11 44 -2 54 84 92 129 57 126 57 126 -39z m-913 -40 c14 -52 2 -65 -75 -84
-57 -13 -57 -12 -29 33 17 25 37 57 45 71 22 38 46 30 59 -20z m565 -253 c-19
-220 -132 -378 -368 -516 -105 -62 -117 -54 -55 37 75 111 118 284 106 433
-10 114 -6 130 26 139 21 5 90 34 153 64 141 67 157 49 138 -157z m-517 -129
c-22 -356 -203 -560 -533 -602 l-108 -13 33 46 c83 112 138 268 151 423 l12
157 140 45 c77 26 172 60 210 78 105 47 106 46 95 -134z" />
        <path
            d="M1873 3403 c-68 -75 -124 -732 -66 -780 114 -95 210 226 125 421 -35
81 -42 187 -15 204 10 6 24 -35 32 -91 17 -131 73 -242 151 -297 70 -50 75
-35 21 53 -68 112 -101 237 -81 306 41 144 -81 279 -167 184z" />
    </g>
</svg>
